<?xml version="1.0" encoding="UTF-8"?>
<svg width="45px" height="45px" viewBox="0 0 45 45" version="1.1" xmlns="http://www.w3.org/2000/svg" xmlns:xlink="http://www.w3.org/1999/xlink">
    <!-- Generator: Sketch 51.3 (57544) - http://www.bohemiancoding.com/sketch -->
    <title>w-16</title>
    <desc>Created with Sketch.</desc>
    <defs></defs>
    <g id="w-16" stroke="none" stroke-width="1" fill="none" fill-rule="evenodd">
        <g id="Cloud-/-Lined-/-Double-/-Open" transform="translate(2.000000, 3.015968)" fill-rule="nonzero" stroke-linejoin="round">
            <path d="M38.7990426,19.7879042 C40.2277298,18.2884831 41.0999349,16.3244028 41.0999349,14.142887 C41.0999349,9.46250711 37.2167555,5.79960113 32.4939698,5.79960113 C31.4444618,5.79960113 30.4999047,6.00309591 29.5553475,6.30833808 C29.2404951,2.84892687 26.3018729,0 22.6285951,0 C18.7454157,0 15.5968919,3.05242165 15.5968919,6.81707502" id="Shape" stroke="#FFFFFF" stroke-width="3"></path>
            <path d="M39.356724,16.8601138 C39.7557972,15.9595971 39.9604984,15.0169616 39.9604984,14.1179548 C39.9604984,10.9550042 37.2167555,6.99662923 32.4939698,6.99662923 C31.4444618,6.99662923 29.8496317,7.50502264 28.9050746,7.81026481 C27.8364137,3.30668743 25.9900783,1.1970281 22.6285951,1.1970281 C19.2671119,1.1970281 17.2074795,3.93227323 16.9368534,6.59871764" id="Shape" stroke="#222222" stroke-width="2"></path>
            <g id="Cloud-/-Lined-/-Single-/-Open" transform="translate(0.000000, 5.333333)">
                <path d="M30.8884618,27.2807674 C35.7983265,26.2050338 39.5357143,22.1417579 39.5357143,17.13175 C39.5357143,11.46225 34.9065325,7.02525 29.2764467,7.02525 C28.0253165,7.02525 26.8992993,7.27175 25.7732821,7.6415 C25.397943,3.451 21.8947785,0 17.5158228,0 C12.886641,0 9.13325045,3.6975 9.13325045,8.25775 C9.13325045,9.24375 9.38347649,10.22975 9.63370253,11.0925 C9.25836347,10.96925 8.75791139,10.96925 8.38257233,10.96925 C3.7533906,10.96925 0,14.66675 0,19.227 C0,23.3301698 3.10284892,26.8009303 7.13176256,27.3974396" id="Shape" stroke="#FFFFFF" stroke-width="3"></path>
                <path d="M29.6517857,26.03475 C35.1567586,25.4185 38.1773793,20.9329362 38.1773793,17.1015488 C38.1773793,13.2701614 34.9065325,8.47525 29.2764467,8.47525 C28.0253165,8.47525 26.1241016,9.09108387 24.9980844,9.46083387 C23.7241218,4.00550061 21.5230846,1.45 17.5158228,1.45 C13.5085609,1.45 11.0532501,4.76329353 10.7306336,7.99324644 C10.6323688,8.97704826 11.0532501,11.4353226 11.3034761,12.2980726 C10.9281371,12.1748226 9.09563814,12.2980726 8.72029908,12.2980726 C4.09111735,12.2980726 1.46428571,16.2539545 1.46428571,19.227 C1.46428571,22.2000455 3.62827758,25.9115 8.13234629,26.03475" id="Shape" stroke="#222222" stroke-width="2"></path>
            </g>
        </g>
        <g id="Rain-/-Semi-breit" transform="translate(12.000000, 27.000000)" fill="#9D9D9D" fill-rule="nonzero">
            <g id="Rain-/-Semi-/-Single" transform="translate(0.000000, 2.000000)">
                <path d="M5.52850597,0.893748697 C6.37993985,1.13789344 6.87224498,2.02603539 6.62810024,2.87746927 L5.74397393,5.96078412 C5.4998292,6.812218 4.61168724,7.30452313 3.76025336,7.06037839 C2.90881947,6.81623365 2.41651435,5.9280917 2.66065909,5.07665781 L3.54478539,1.99334297 C3.78893013,1.14190908 4.67707208,0.64960396 5.52850597,0.893748697 Z M3.31819021,8.60203581 C4.16962409,8.84618055 4.66192921,9.73432251 4.41778448,10.5857564 L3.53365817,13.6690712 C3.28951343,14.5205051 2.40137148,15.0128102 1.5499376,14.7686655 C0.698503712,14.5245208 0.206198588,13.6363788 0.450343325,12.7849449 L1.33446963,9.70163009 C1.57861437,8.8501962 2.46675632,8.35789108 3.31819021,8.60203581 Z" id="Combined-Shape-Copy"></path>
            </g>
            <g id="Rain-/-Semi-/-Single" transform="translate(8.000000, 0.000000)">
                <path d="M5.52850597,0.893748697 C6.37993985,1.13789344 6.87224498,2.02603539 6.62810024,2.87746927 L5.74397393,5.96078412 C5.4998292,6.812218 4.61168724,7.30452313 3.76025336,7.06037839 C2.90881947,6.81623365 2.41651435,5.9280917 2.66065909,5.07665781 L3.54478539,1.99334297 C3.78893013,1.14190908 4.67707208,0.64960396 5.52850597,0.893748697 Z M3.31819021,8.60203581 C4.16962409,8.84618055 4.66192921,9.73432251 4.41778448,10.5857564 L3.53365817,13.6690712 C3.28951343,14.5205051 2.40137148,15.0128102 1.5499376,14.7686655 C0.698503712,14.5245208 0.206198588,13.6363788 0.450343325,12.7849449 L1.33446963,9.70163009 C1.57861437,8.8501962 2.46675632,8.35789108 3.31819021,8.60203581 Z" id="Combined-Shape-Copy"></path>
            </g>
        </g>
    </g>
</svg>