<svg id="Layer_1" data-name="Layer 1" xmlns="http://www.w3.org/2000/svg" width="89.46" height="33" viewBox="0 0 89.46 33">
  <title>Artboard 1</title>
  <path d="M11.67,6.75H4.83a1,1,0,0,0-.94.8L1.13,25.09a.57.57,0,0,0,.47.65H5a1,1,0,0,0,.94-.81l.75-4.73a1,1,0,0,1,.94-.8H9.74c4.51,0,7.11-2.18,7.79-6.5a5.26,5.26,0,0,0-.88-4.41C15.68,7.35,14,6.75,11.67,6.75Zm.79,6.4c-.38,2.46-2.25,2.46-4.06,2.46h-1L8.09,11a.57.57,0,0,1,.56-.48h.47c1.24,0,2.4,0,3,.71A2.25,2.25,0,0,1,12.46,13.15Zm19.65-.08H28.84a.6.6,0,0,0-.57.49l-.14.91-.23-.33c-.71-1-2.29-1.37-3.87-1.37a7.53,7.53,0,0,0-7.31,6.58,6.17,6.17,0,0,0,1.22,5,5.13,5.13,0,0,0,4.13,1.67,6.28,6.28,0,0,0,4.53-1.87l-.15.91a.57.57,0,0,0,.48.65h3a1,1,0,0,0,.94-.81l1.77-11.21a.57.57,0,0,0-.47-.65Zm-4.56,6.38a3.66,3.66,0,0,1-3.7,3.13,2.77,2.77,0,0,1-2.2-.89,2.81,2.81,0,0,1-.51-2.3,3.66,3.66,0,0,1,3.67-3.15,2.75,2.75,0,0,1,2.18.89A2.85,2.85,0,0,1,27.55,19.45Zm22-6.38H46.26a1,1,0,0,0-.78.42l-4.54,6.69L39,13.75a1,1,0,0,0-.91-.68H34.87a.57.57,0,0,0-.57.57.58.58,0,0,0,0,.19L38,24.47l-3.41,4.81a.58.58,0,0,0,.47.9H38.3a1,1,0,0,0,.78-.41L50,14a.56.56,0,0,0-.47-.89Z" style="fill: #253b80"/>
  <path d="M60.45,6.75H53.61a1,1,0,0,0-.94.8L49.91,25.09a.57.57,0,0,0,.47.65H54a.66.66,0,0,0,.65-.57l.79-5a1,1,0,0,1,.94-.8h2.16c4.51,0,7.11-2.18,7.79-6.5a5.26,5.26,0,0,0-.88-4.41C64.46,7.35,62.74,6.75,60.45,6.75Zm.79,6.4c-.37,2.46-2.25,2.46-4.06,2.46h-1L56.87,11a.57.57,0,0,1,.56-.48h.48c1.23,0,2.4,0,3,.71A2.25,2.25,0,0,1,61.24,13.15Zm19.65-.08H77.62a.57.57,0,0,0-.56.49l-.15.91-.23-.33c-.71-1-2.29-1.37-3.86-1.37a7.54,7.54,0,0,0-7.32,6.58,6.21,6.21,0,0,0,1.22,5,5.13,5.13,0,0,0,4.13,1.67,6.28,6.28,0,0,0,4.53-1.87l-.14.91a.57.57,0,0,0,.47.65h3a1,1,0,0,0,.94-.81l1.77-11.21a.57.57,0,0,0-.48-.65Zm-4.56,6.38a3.66,3.66,0,0,1-3.7,3.13,2.77,2.77,0,0,1-2.2-.89,2.81,2.81,0,0,1-.51-2.3,3.67,3.67,0,0,1,3.67-3.15,2.75,2.75,0,0,1,2.18.89A2.85,2.85,0,0,1,76.33,19.45ZM84.75,7.23,82,25.09a.57.57,0,0,0,.47.65h2.91a1,1,0,0,0,.94-.81L89,7.41a.58.58,0,0,0-.48-.66H85.32A.58.58,0,0,0,84.75,7.23Z" style="fill: #179bd7"/>
</svg>
