<?xml version="1.0" encoding="utf-8"?>
<!-- Generator: Adobe Illustrator 23.0.4, SVG Export Plug-In . SVG Version: 6.00 Build 0)  -->
<svg version="1.1" id="Ebene_1" xmlns="http://www.w3.org/2000/svg" xmlns:xlink="http://www.w3.org/1999/xlink" x="0px" y="0px"
	 viewBox="0 0 805.8 59.5" style="enable-background:new 0 0 805.8 59.5;" xml:space="preserve">
<style type="text/css">
	.st0{fill-rule:evenodd;clip-rule:evenodd;fill:#60604D;}
	.st1{fill:#60604D;}
	.st2{fill:#B32B2E;}
	.st3{fill:none;}
</style>
<g>
	<g>
		<path class="st0" d="M7.9,50.4c0-1.2,0.8-2.3,2.6-3.4c6.1,0.5,7.6,1.5,7.6,3.3c0,2.4-2.6,3.3-5.1,3.3C10.6,53.6,7.9,52.9,7.9,50.4
			L7.9,50.4z M13,26.2c1.9,0,3.6,1.7,3.6,3.5c0,1.9-1.5,3.6-3.6,3.6c-2.2,0-3.6-1.7-3.6-3.6C9.4,27.7,11,26.2,13,26.2L13,26.2z
			 M27.6,22.4l-8.1,0.5c-1.8-1-4.5-1.4-6.5-1.4c-5.4,0-10.8,2.3-10.8,8.5c0,3.2,1.7,5.2,4.4,6.7c-2.4,0.8-6.1,2.8-6.1,5.7
			c0,1.9,1.3,3.1,4.8,3.8v0.1C2,47.7,0,49.7,0,52.2c0,6.2,7.7,7,12.3,7c6.1,0,13.7-2.7,13.7-9.9c0-7.3-7.9-8.2-13.6-8.7
			c-1.8-0.1-2.9-0.5-2.9-1.5c0-0.6,0.5-1.2,0.6-1.2c0.1,0,2,0.2,3.5,0.2c4.6,0,10.3-2.2,10.3-7.2c0-1.1-0.4-2.2-1-3.2l4.7,0.3V22.4
			L27.6,22.4z"/>
		<path class="st1" d="M30.9,46.9h8.5l0.1-14.2c0-0.5,2.2-2.9,5-2.9c1.3,0,2.2,0.2,3,0.5l1.1-8.4c-0.9-0.2-1.8-0.3-2.8-0.3
			c-3.3,0-5,2-6.2,4.1h-0.1v-3.5h-8.5L30.9,46.9L30.9,46.9z"/>
		<path class="st0" d="M53.3,30.3c2.2-1.1,4.5-2.7,7.1-2.7c1.6,0,2.7,0.9,2.7,2.9v0.9c-2.3,0.2-4.7,0.6-6.2,1
			c-5.3,1.4-8.1,3.3-8.1,8.3c0,4.4,3.3,7.1,7.7,7.1c2.6,0,5.2-1.2,7.1-2.7c0.3,1.8,1.9,2.7,4.2,2.7c1.5,0,5.4-0.6,6.5-1.5l-0.9-4.6
			c-0.2,0.2-0.6,0.3-1,0.3c-1.1,0-1.4-0.7-1.4-1.7V28.4c0-4.7-3-6.9-7.5-6.9c-5,0-8.8,1.5-13,4.1L53.3,30.3L53.3,30.3z M63.1,40.6
			c0,0.5-1.7,1.6-3.4,1.6c-1.4,0-3-0.8-3-2.5c0-2.7,2.8-3.8,4.9-3.9c0.7,0,1.1-0.1,1.5-0.2V40.6L63.1,40.6z"/>
		<path class="st1" d="M92.4,38.2c-1.1,1.1-3.1,2.2-4.4,2.2c-2.5,0-3.1-1.6-3.1-3.6c0-5.1,0-9.8,0.1-14.5h-8.5
			c0,5.4-0.1,10.8-0.1,15.8c0,6.7,2.8,9.6,8,9.6c3,0,6-1.7,7.9-3.6v2.7h8.5l0.2-24.5h-8.5L92.4,38.2L92.4,38.2z"/>
		<path class="st0" d="M106.1,46.9h7.9v-1.1h0.1c1.1,1.2,3.2,2,5.7,2c7.9,0,12.5-6.2,12.5-13.9c0-6-3.7-12.4-11.2-12.4
			c-2.2,0-5,0.9-6.5,2.3l0.1-13.4h-8.5L106.1,46.9L106.1,46.9z M114.4,30.2c1.2-1,2.8-1.7,4.4-1.7c3.8,0,5.1,2.9,5.1,6.2
			c0,3.7-1.8,6.9-5.7,6.9c-1.3,0-3.1-0.4-3.9-1.4L114.4,30.2L114.4,30.2z"/>
		<path class="st1" d="M174.8,46.9h8.5l0.2-15.9c1.1-1.1,3.1-2.2,4.4-2.2c2.5,0,3.1,1.6,3.1,3.6c0,5.1,0,9.8-0.1,14.5h8.5
			c0-5.4,0.1-10.8,0.1-15.8c0-6.7-2.8-9.6-8-9.6c-3,0-6,1.7-7.9,3.6v-2.7H175L174.8,46.9L174.8,46.9z"/>
		<path class="st0" d="M228.6,10.4h-8.2l-0.1,12.4c-1.6-0.8-3.6-1.3-5.5-1.3c-7.9,0-12.5,6.2-12.5,13.9c0,6,3.7,12.4,11.2,12.4
			c2.7-0.1,5.1-1.2,6.9-2.6v1.8h8L228.6,10.4L228.6,10.4z M220.3,39.1c-1.2,1-2.8,1.7-4.4,1.7c-3.8,0-5.1-2.9-5.1-6.2
			c0-3.7,1.8-6.9,5.7-6.9c1.3,0,3.1,0.4,3.9,1.4L220.3,39.1L220.3,39.1z"/>
		<path class="st0" d="M252.7,39.2c-2.3,1.6-3.9,2.4-6.9,2.4c-4.7,0-5.9-3.2-5.9-5.1h17c0-8.4-2.9-15-12.3-15
			c-7.6,0-13.2,6.3-13.2,13.7c0,6.3,4,12.6,12.9,12.6c3.9,0,8.3-1.2,11.1-3.6L252.7,39.2L252.7,39.2z M240,31.6
			c0.5-2.4,2.6-4.8,5.3-4.8c2.8,0,4,2.3,4,4.8H240L240,31.6z"/>
		<path class="st1" d="M260.2,46.9h8.5l0.2-15.9c1.1-1.1,3.1-2.2,4.4-2.2c2.5,0,3.1,1.6,3.1,3.6c0,5.1,0,9.8-0.1,14.5h8.5
			c0-5.4,0.1-10.8,0.1-15.8c0-6.7-2.8-9.6-8-9.6c-3,0-6,1.7-7.9,3.6v-2.7h-8.5L260.2,46.9L260.2,46.9z"/>
		<path class="st2" d="M136,56.9l1.7,0c18.3,0,32.6-16.4,32.6-34.3h-8.7c0,13.7-10.3,24.8-24.4,24.8L136,56.9L136,56.9z"/>
		<path class="st1" d="M171.2,0c-16.5-0.7-22.5,8.9-22.5,22.5h9.5c-1.3-12.7,6.2-17,12.1-16.7L171.2,0L171.2,0z"/>
		<path class="st1" d="M123.1,0c16.5-0.7,22.5,8.9,22.5,22.5h-9.5c1.3-12.7-6.2-17-12.1-16.7L123.1,0L123.1,0z"/>
	</g>
</g>
<g>
	<path class="st1" d="M329.4,47c-2,0-5.1-0.1-8-0.1V13.8c2.3,0,5.2-0.1,9.2-0.1c7.2,0,10.6,3,10.6,7.8c0,3.6-2.5,6.8-6.2,7.8v0.1
		c4.9,0.7,7,4.2,7,7.7C342,40.7,339.9,47,329.4,47z M330,16.7c-1.6,0-3.3,0-4.8,0.1v11.5c1,0,1.9,0,3.1,0c5.9,0,9-2.3,9-6.2
		C337.3,19,335.8,16.7,330,16.7z M328.4,31.2c-0.6,0-2.4,0-3.2,0v12.4c0.9,0.1,2.4,0.3,4.5,0.3c5.8,0,8.4-2.9,8.4-6.8
		C338.1,32.6,333.9,31.2,328.4,31.2z"/>
	<path class="st1" d="M353.5,46.9h-3.6V25.5c-1.2-0.2-2.8-0.4-4.3-0.5v-2.1c2.2-0.3,5.4-0.4,7.9-0.3V46.9z M351.7,18.1
		c-1.4,0-2.5-1.1-2.5-2.5c0-1.4,1.1-2.5,2.5-2.5c1.4,0,2.5,1.1,2.5,2.5C354.2,17.1,353.1,18.1,351.7,18.1z"/>
	<path class="st1" d="M366.2,46.9h-3.6V14.1c-1.2-0.2-2.8-0.4-4.3-0.5v-2.1c2.2-0.3,5.4-0.4,7.9-0.3V46.9z"/>
	<path class="st1" d="M389.4,46.9c0-1.5,0.1-3.8,0.4-5.3l-0.1,0c-1.4,3.5-4.5,5.8-8.4,5.8c-6,0-9-4.4-9-11.5
		c0-8.7,4.9-13.6,12.5-13.6c1.4,0,2.8,0.1,4.5,0.2v-8.4c-1.2-0.2-2.8-0.4-4.3-0.5v-2.1c2.2-0.3,5.4-0.4,7.9-0.3V44
		c1.2,0.2,2.8,0.4,4.3,0.5v2.1C395.1,46.8,391.9,47,389.4,46.9z M389.4,25.7c-1.7-0.4-3.2-0.6-4.8-0.6c-5,0-8.3,3-8.3,10.4
		c0,5.5,1.9,8.8,5.9,8.8c4.9,0,7.3-5.7,7.3-10V25.7z"/>
	<path class="st1" d="M418.9,46.9c0-1.6,0.1-3.9,0.4-5.4l-0.1,0c-1.4,3.5-4.5,5.9-8.7,5.9c-5.6,0-7.3-3.5-7.3-7.8V25.5
		c-1.2-0.2-2.8-0.4-4.3-0.5v-2.1c2.3-0.3,5.5-0.4,7.9-0.3v15.8c0,3.8,1,6,4.6,6c4.4,0,7.4-4.3,7.4-10.1V22.5h3.7V44
		c1.2,0.2,2.8,0.4,4.3,0.5v2.1C424.6,46.8,421.4,47,418.9,46.9z"/>
	<path class="st1" d="M436.1,27.9L436.1,27.9c1.5-3.5,4.6-5.9,8.8-5.9c5.6,0,7.3,3.5,7.3,7.8v17h-3.7V31.1c0-3.8-1-6-4.6-6
		c-4.4,0-7.4,4.3-7.4,10.1v11.7h-3.6V25.5c-1.2-0.2-2.8-0.4-4.3-0.5v-2.1c2.2-0.3,5.4-0.4,7.9-0.3C436.6,24.1,436.4,26.5,436.1,27.9
		z"/>
	<path class="st1" d="M466.7,59.5c-2.7,0-5-0.3-7-0.9l0.3-3.7c2,0.8,4.8,1.3,7.1,1.3c5.3,0,8.3-2,8.3-7.9v-2.2c0-1.8,0-3.2,0.3-4.5
		l-0.1,0c-1.4,3.5-4.5,5.8-8.2,5.8c-5.7,0-9-3.9-9-11.5c0-8.7,4.9-13.6,12.7-13.6c2.7,0,5.5,0.2,7.9,0.7v26.3
		C479,53.4,477.1,59.5,466.7,59.5z M475.4,25.7c-1.6-0.4-3.2-0.5-4.8-0.5c-5,0-8.3,3-8.3,10.4c0,5.5,1.9,8.8,5.9,8.8
		c4.9,0,7.3-5.7,7.3-10V25.7z"/>
	<path class="st1" d="M514.4,46.9c0-1.6,0.1-3.9,0.4-5.4l-0.1,0c-1.4,3.5-4.5,5.9-8.7,5.9c-5.6,0-7.3-3.5-7.3-7.8V25.5
		c-1.2-0.2-2.8-0.4-4.3-0.5v-2.1c2.3-0.3,5.5-0.4,7.9-0.3v15.8c0,3.8,1,6,4.6,6c4.4,0,7.4-4.3,7.4-10.1V22.5h3.7V44
		c1.2,0.2,2.8,0.4,4.3,0.5v2.1C520.1,46.8,516.9,47,514.4,46.9z"/>
	<path class="st1" d="M531.6,27.9L531.6,27.9c1.5-3.5,4.6-5.9,8.8-5.9c5.6,0,7.3,3.5,7.3,7.8v17h-3.7V31.1c0-3.8-1-6-4.6-6
		c-4.4,0-7.4,4.3-7.4,10.1v11.7h-3.6V25.5c-1.2-0.2-2.8-0.4-4.3-0.5v-2.1c2.2-0.3,5.4-0.4,7.9-0.3C532,24.1,531.9,26.5,531.6,27.9z"
		/>
	<path class="st1" d="M570.9,46.9c0-1.5,0.1-3.8,0.4-5.3l-0.1,0c-1.4,3.5-4.5,5.8-8.4,5.8c-6,0-9-4.4-9-11.5
		c0-8.7,4.9-13.6,12.5-13.6c1.4,0,2.8,0.1,4.5,0.2v-8.4c-1.2-0.2-2.8-0.4-4.3-0.5v-2.1c2.2-0.3,5.4-0.4,7.9-0.3V44
		c1.2,0.2,2.8,0.4,4.3,0.5v2.1C576.6,46.8,573.4,47,570.9,46.9z M570.9,25.7c-1.7-0.4-3.2-0.6-4.8-0.6c-5,0-8.3,3-8.3,10.4
		c0,5.5,1.9,8.8,5.9,8.8c4.9,0,7.3-5.7,7.3-10V25.7z"/>
	<path class="st1" d="M597.7,16.9v11.6h12.1v3h-12.1v15.4h-3.8V13.8h16.6v3.1H597.7z"/>
	<path class="st1" d="M623.4,47.3c-6.5,0-10.7-4-10.7-12.5c0-7,4.3-12.7,11.6-12.7c5.9,0,10.8,3.3,10.8,12.2
		C635.1,41.6,630.6,47.3,623.4,47.3z M624,25.1c-3.8,0-7.4,2.9-7.4,9.4c0,6.2,2.7,9.7,7.4,9.7c3.8,0,7.3-2.9,7.3-9.7
		C631.3,28.7,628.8,25.1,624,25.1z"/>
	<path class="st1" d="M645.4,28.7L645.4,28.7c1.1-3.5,3.6-7.2,8.7-6.6l-0.2,3.6c-5.3-0.9-7.9,3.2-7.9,11.4v9.8h-3.6V25.5
		c-1.2-0.2-2.8-0.4-4.3-0.5v-2.1c2.2-0.3,5.4-0.4,7.9-0.3C646,24.2,645.8,26.6,645.4,28.7z"/>
	<path class="st1" d="M662.9,47.3c-1.8,0-3.7-0.2-5.1-0.5l0.1-3.4c1.6,0.4,3.5,0.8,5.4,0.8c3.5,0,6-1.6,6-4.1
		c0-5.8-11.9-2.2-11.9-10.9c0-4.1,3.3-7.2,9.5-7.2c1.5,0,3.2,0.2,4.8,0.5l-0.1,3.2c-1.6-0.5-3.4-0.8-5-0.8c-3.6,0-5.3,1.5-5.3,3.9
		c0,5.8,11.9,2.5,11.9,10.8C673.1,44,669.2,47.3,662.9,47.3z"/>
	<path class="st1" d="M687.9,47.2c-5.4,0-10.5-2.4-10.5-11.6c0-8,4-13.4,12-13.4c2,0,4,0.3,5.7,0.8l-0.4,3.2
		c-1.6-0.6-3.5-1.1-5.6-1.1c-5.2,0-7.8,3.9-7.8,9.8c0,5,1.6,9.1,7.4,9.1c2.2,0,4.5-0.5,6.1-1.4l0.3,3.2
		C693.5,46.5,690.9,47.2,687.9,47.2z"/>
	<path class="st1" d="M696.9,13.6v-2.1c2.2-0.3,5.4-0.4,7.9-0.3V23c0,1.6-0.1,3.6-0.4,4.9l0.1,0c1.4-3.6,4.5-5.9,8.7-5.9
		c5.6,0,7.3,3.5,7.3,7.8v17h-3.7V31.1c0-3.8-1-6-4.6-6c-4.4,0-7.4,4.3-7.4,10.1v11.7h-3.6V14.1C700,13.9,698.4,13.7,696.9,13.6z"/>
	<path class="st1" d="M745.7,46.9c0-1.6,0.1-3.9,0.4-5.4l-0.1,0c-1.4,3.5-4.5,5.9-8.7,5.9c-5.6,0-7.3-3.5-7.3-7.8V25.5
		c-1.2-0.2-2.8-0.4-4.3-0.5v-2.1c2.3-0.3,5.5-0.4,7.9-0.3v15.8c0,3.8,1,6,4.6,6c4.4,0,7.4-4.3,7.4-10.1V22.5h3.7V44
		c1.2,0.2,2.8,0.4,4.3,0.5v2.1C751.4,46.8,748.2,47,745.7,46.9z"/>
	<path class="st1" d="M762.9,27.9L762.9,27.9c1.5-3.5,4.6-5.9,8.8-5.9c5.6,0,7.3,3.5,7.3,7.8v17h-3.7V31.1c0-3.8-1-6-4.6-6
		c-4.4,0-7.4,4.3-7.4,10.1v11.7h-3.6V25.5c-1.2-0.2-2.8-0.4-4.3-0.5v-2.1c2.2-0.3,5.4-0.4,7.9-0.3C763.3,24.1,763.2,26.5,762.9,27.9
		z"/>
	<path class="st1" d="M793.5,59.5c-2.7,0-5-0.3-7-0.9l0.3-3.7c2,0.8,4.8,1.3,7.1,1.3c5.3,0,8.3-2,8.3-7.9v-2.2c0-1.8,0-3.2,0.3-4.5
		l-0.1,0c-1.4,3.5-4.5,5.8-8.2,5.8c-5.7,0-9-3.9-9-11.5c0-8.7,4.9-13.6,12.7-13.6c2.7,0,5.5,0.2,7.9,0.7v26.3
		C805.8,53.4,803.8,59.5,793.5,59.5z M802.2,25.7c-1.6-0.4-3.2-0.5-4.8-0.5c-5,0-8.3,3-8.3,10.4c0,5.5,1.9,8.8,5.9,8.8
		c4.9,0,7.3-5.7,7.3-10V25.7z"/>
</g>
<rect x="-41" y="-26.2" class="st3" width="892.9" height="121.9"/>
</svg>
